<?xml version="1.0" encoding="UTF-8"?>
<!DOCTYPE svg PUBLIC "-//W3C//DTD SVG 1.1//EN" "http://www.w3.org/Graphics/SVG/1.1/DTD/svg11.dtd">
<svg xmlns="http://www.w3.org/2000/svg" version="1.1" width="733px" height="733px" style="shape-rendering:geometricPrecision; text-rendering:geometricPrecision; image-rendering:optimizeQuality; fill-rule:evenodd; clip-rule:evenodd" xmlns:xlink="http://www.w3.org/1999/xlink">
<g><path style="opacity:0.004" fill="#fefffe" d="M 336.5,-0.5 C 337.833,-0.5 339.167,-0.5 340.5,-0.5C 339.167,2.16667 337.833,2.16667 336.5,-0.5 Z"/></g>
<g><path style="opacity:0.952" fill="#fefefe" d="M 350.5,-0.5 C 360.5,-0.5 370.5,-0.5 380.5,-0.5C 380.418,1.25169 381.251,2.25169 383,2.5C 385.453,1.50712 387.953,1.34045 390.5,2C 389.461,5.39691 390.794,7.23025 394.5,7.5C 394.22,10.3882 395.553,11.8882 398.5,12C 398.926,15.5921 400.926,17.0921 404.5,16.5C 404.756,18.7925 404.423,20.9592 403.5,23C 404.779,24.6461 406.445,25.8128 408.5,26.5C 408.881,28.7407 409.048,31.074 409,33.5C 410.356,34.3802 411.856,34.7135 413.5,34.5C 413.5,37.5 413.5,40.5 413.5,43.5C 415.167,43.5 416.833,43.5 418.5,43.5C 418.25,46.214 418.083,48.8806 418,51.5C 419.356,52.3802 420.856,52.7135 422.5,52.5C 422.183,55.5719 422.516,58.5719 423.5,61.5C 424.72,62.7111 425.887,62.7111 427,61.5C 427.711,63.8991 427.544,66.2324 426.5,68.5C 427.421,70.756 429.088,71.756 431.5,71.5C 431.336,74.1873 431.503,76.854 432,79.5C 433.356,80.3802 434.856,80.7135 436.5,80.5C 436.5,83.5 436.5,86.5 436.5,89.5C 438.167,89.5 439.833,89.5 441.5,89.5C 441.25,92.214 441.083,94.8806 441,97.5C 442.356,98.3802 443.856,98.7135 445.5,98.5C 445.5,101.5 445.5,104.5 445.5,107.5C 447.167,107.5 448.833,107.5 450.5,107.5C 450.708,109.92 450.374,112.253 449.5,114.5C 450.421,116.756 452.088,117.756 454.5,117.5C 454.336,120.187 454.503,122.854 455,125.5C 456.356,126.38 457.856,126.714 459.5,126.5C 459.5,129.5 459.5,132.5 459.5,135.5C 460.833,135.5 462.167,135.5 463.5,135.5C 464.18,138.062 464.347,140.729 464,143.5C 465.049,145.107 466.549,145.773 468.5,145.5C 468.335,148.518 468.502,151.518 469,154.5C 469.928,156.335 471.094,156.668 472.5,155.5C 472.833,156.833 473.167,158.167 473.5,159.5C 473.076,161.87 472.909,164.204 473,166.5C 474.356,167.38 475.856,167.714 477.5,167.5C 477.5,170.5 477.5,173.5 477.5,176.5C 479.167,176.5 480.833,176.5 482.5,176.5C 482.708,178.92 482.374,181.253 481.5,183.5C 482.668,185.217 484.335,185.884 486.5,185.5C 486.5,188.5 486.5,191.5 486.5,194.5C 488.167,194.5 489.833,194.5 491.5,194.5C 491.335,197.518 491.502,200.518 492,203.5C 493.356,204.38 494.856,204.714 496.5,204.5C 495.992,207.176 495.825,209.843 496,212.5C 497.356,213.38 498.856,213.714 500.5,213.5C 500.336,216.187 500.503,218.854 501,221.5C 502.356,222.38 503.856,222.714 505.5,222.5C 505.25,225.214 505.083,227.881 505,230.5C 506.356,231.38 507.856,231.714 509.5,231.5C 509.5,234.5 509.5,237.5 509.5,240.5C 511.167,240.5 512.833,240.5 514.5,240.5C 514.768,243.119 514.435,245.619 513.5,248C 515.059,248.98 516.726,249.813 518.5,250.5C 518.83,253.173 519.163,255.839 519.5,258.5C 520.72,259.711 521.887,259.711 523,258.5C 523.333,261.5 523.667,264.5 524,267.5C 525.356,268.38 526.856,268.714 528.5,268.5C 528.25,271.214 528.083,273.881 528,276.5C 529.356,277.38 530.856,277.714 532.5,277.5C 532.335,280.518 532.502,283.518 533,286.5C 534.356,287.38 535.856,287.714 537.5,287.5C 537.751,290.909 537.417,294.242 536.5,297.5C 537.421,299.756 539.088,300.756 541.5,300.5C 541.336,303.187 541.503,305.854 542,308.5C 543.356,309.38 544.856,309.714 546.5,309.5C 546.5,312.5 546.5,315.5 546.5,318.5C 548.167,318.5 549.833,318.5 551.5,318.5C 551.25,321.214 551.083,323.881 551,326.5C 552.356,327.38 553.856,327.714 555.5,327.5C 555.5,330.5 555.5,333.5 555.5,336.5C 557.167,336.5 558.833,336.5 560.5,336.5C 560.708,338.92 560.374,341.253 559.5,343.5C 560.421,345.756 562.088,346.756 564.5,346.5C 564.336,349.187 564.503,351.854 565,354.5C 566.356,355.38 567.856,355.714 569.5,355.5C 569.756,357.792 569.423,359.959 568.5,362C 569.779,363.646 571.445,364.813 573.5,365.5C 573.881,367.741 574.048,370.074 574,372.5C 575.356,373.38 576.856,373.714 578.5,373.5C 578.5,376.5 578.5,379.5 578.5,382.5C 580.167,382.5 581.833,382.5 583.5,382.5C 583.5,386.833 583.5,391.167 583.5,395.5C 551.5,395.5 519.5,395.5 487.5,395.5C 488.167,391.5 486.5,389.833 482.5,390.5C 482.5,387.5 482.5,384.5 482.5,381.5C 480.833,381.5 479.167,381.5 477.5,381.5C 477.75,378.786 477.917,376.119 478,373.5C 476.644,372.62 475.144,372.286 473.5,372.5C 473.817,369.428 473.484,366.428 472.5,363.5C 471.28,362.289 470.113,362.289 469,363.5C 468.289,361.101 468.456,358.768 469.5,356.5C 468.579,354.244 466.912,353.244 464.5,353.5C 464.664,350.813 464.497,348.146 464,345.5C 462.644,344.62 461.144,344.286 459.5,344.5C 459.5,341.5 459.5,338.5 459.5,335.5C 396.833,336.833 334.167,336.833 271.5,335.5C 271.5,338.5 271.5,341.5 271.5,344.5C 269.856,344.286 268.356,344.62 267,345.5C 266.503,348.146 266.336,350.813 266.5,353.5C 264.088,353.244 262.421,354.244 261.5,356.5C 262.544,358.768 262.711,361.101 262,363.5C 260.887,362.289 259.72,362.289 258.5,363.5C 257.516,366.428 257.183,369.428 257.5,372.5C 255.856,372.286 254.356,372.62 253,373.5C 253.083,376.119 253.25,378.786 253.5,381.5C 251.833,381.5 250.167,381.5 248.5,381.5C 248.5,384.5 248.5,387.5 248.5,390.5C 244.5,389.833 242.833,391.5 243.5,395.5C 211.5,395.5 179.5,395.5 147.5,395.5C 147.5,391.167 147.5,386.833 147.5,382.5C 149.167,382.5 150.833,382.5 152.5,382.5C 152.5,379.5 152.5,376.5 152.5,373.5C 154.144,373.714 155.644,373.38 157,372.5C 156.952,370.074 157.119,367.741 157.5,365.5C 159.555,364.813 161.221,363.646 162.5,362C 161.577,359.959 161.244,357.792 161.5,355.5C 163.144,355.714 164.644,355.38 166,354.5C 166.497,351.854 166.664,349.187 166.5,346.5C 168.912,346.756 170.579,345.756 171.5,343.5C 170.626,341.253 170.292,338.92 170.5,336.5C 172.167,336.5 173.833,336.5 175.5,336.5C 175.5,333.5 175.5,330.5 175.5,327.5C 177.144,327.714 178.644,327.38 180,326.5C 179.917,323.881 179.75,321.214 179.5,318.5C 181.167,318.5 182.833,318.5 184.5,318.5C 184.5,315.5 184.5,312.5 184.5,309.5C 186.144,309.714 187.644,309.38 189,308.5C 189.497,305.854 189.664,303.187 189.5,300.5C 191.912,300.756 193.579,299.756 194.5,297.5C 193.583,294.242 193.249,290.909 193.5,287.5C 195.144,287.714 196.644,287.38 198,286.5C 198.498,283.518 198.665,280.518 198.5,277.5C 200.144,277.714 201.644,277.38 203,276.5C 202.917,273.881 202.75,271.214 202.5,268.5C 204.144,268.714 205.644,268.38 207,267.5C 207.333,264.5 207.667,261.5 208,258.5C 209.113,259.711 210.28,259.711 211.5,258.5C 211.837,255.839 212.17,253.173 212.5,250.5C 214.274,249.813 215.941,248.98 217.5,248C 216.565,245.619 216.232,243.119 216.5,240.5C 218.167,240.5 219.833,240.5 221.5,240.5C 221.5,237.5 221.5,234.5 221.5,231.5C 223.144,231.714 224.644,231.38 226,230.5C 225.917,227.881 225.75,225.214 225.5,222.5C 227.144,222.714 228.644,222.38 230,221.5C 230.497,218.854 230.664,216.187 230.5,213.5C 232.144,213.714 233.644,213.38 235,212.5C 235.175,209.843 235.008,207.176 234.5,204.5C 236.144,204.714 237.644,204.38 239,203.5C 239.498,200.518 239.665,197.518 239.5,194.5C 241.167,194.5 242.833,194.5 244.5,194.5C 244.5,191.5 244.5,188.5 244.5,185.5C 246.665,185.884 248.332,185.217 249.5,183.5C 248.626,181.253 248.292,178.92 248.5,176.5C 250.167,176.5 251.833,176.5 253.5,176.5C 253.5,173.5 253.5,170.5 253.5,167.5C 255.144,167.714 256.644,167.38 258,166.5C 258.091,164.204 257.924,161.87 257.5,159.5C 257.833,158.167 258.167,156.833 258.5,155.5C 259.906,156.668 261.072,156.335 262,154.5C 262.498,151.518 262.665,148.518 262.5,145.5C 263.978,145.762 265.311,145.429 266.5,144.5C 266.943,141.413 267.276,138.413 267.5,135.5C 268.833,135.5 270.167,135.5 271.5,135.5C 271.5,132.5 271.5,129.5 271.5,126.5C 273.144,126.714 274.644,126.38 276,125.5C 276.497,122.854 276.664,120.187 276.5,117.5C 278.912,117.756 280.579,116.756 281.5,114.5C 280.626,112.253 280.292,109.92 280.5,107.5C 282.167,107.5 283.833,107.5 285.5,107.5C 285.5,104.5 285.5,101.5 285.5,98.5C 287.144,98.7135 288.644,98.3802 290,97.5C 289.917,94.8806 289.75,92.214 289.5,89.5C 291.167,89.5 292.833,89.5 294.5,89.5C 294.5,86.5 294.5,83.5 294.5,80.5C 296.144,80.7135 297.644,80.3802 299,79.5C 299.497,76.854 299.664,74.1873 299.5,71.5C 301.912,71.756 303.579,70.756 304.5,68.5C 303.456,66.2324 303.289,63.8991 304,61.5C 305.113,62.7111 306.28,62.7111 307.5,61.5C 308.484,58.5719 308.817,55.5719 308.5,52.5C 310.144,52.7135 311.644,52.3802 313,51.5C 312.917,48.8806 312.75,46.214 312.5,43.5C 314.167,43.5 315.833,43.5 317.5,43.5C 317.5,40.5 317.5,37.5 317.5,34.5C 319.144,34.7135 320.644,34.3802 322,33.5C 321.952,31.074 322.119,28.7407 322.5,26.5C 324.555,25.8128 326.221,24.6461 327.5,23C 326.577,20.9592 326.244,18.7925 326.5,16.5C 329.86,17.2096 331.693,15.8762 332,12.5C 335.094,12.2072 336.594,10.5406 336.5,7.5C 340.206,7.23025 341.539,5.39691 340.5,2C 343.047,1.34045 345.547,1.50712 348,2.5C 349.749,2.25169 350.582,1.25169 350.5,-0.5 Z M 363.5,147.5 C 365.144,147.286 366.644,147.62 368,148.5C 367.917,151.119 367.75,153.786 367.5,156.5C 369.144,156.286 370.644,156.62 372,157.5C 372.333,160.5 372.667,163.5 373,166.5C 374.299,166.034 375.799,166.034 377.5,166.5C 377.149,168.869 376.982,171.203 377,173.5C 378.589,175.026 380.423,176.193 382.5,177C 381.565,179.381 381.232,181.881 381.5,184.5C 383.167,184.5 384.833,184.5 386.5,184.5C 386.5,187.5 386.5,190.5 386.5,193.5C 388.144,193.286 389.644,193.62 391,194.5C 390.917,197.119 390.75,199.786 390.5,202.5C 392.144,202.286 393.644,202.62 395,203.5C 395.497,206.146 395.664,208.813 395.5,211.5C 397.971,211.233 399.638,212.233 400.5,214.5C 399.844,216.453 399.511,218.453 399.5,220.5C 400.93,220.421 402.264,220.754 403.5,221.5C 404.484,224.428 404.817,227.428 404.5,230.5C 406.167,230.5 407.833,230.5 409.5,230.5C 409.5,233.5 409.5,236.5 409.5,239.5C 411.665,239.116 413.332,239.783 414.5,241.5C 413.574,245.094 413.241,248.76 413.5,252.5C 417.5,251.833 419.167,253.5 418.5,257.5C 422.677,256.842 424.177,258.508 423,262.5C 422.275,263.059 421.442,263.392 420.5,263.5C 383.833,262.167 347.167,262.167 310.5,263.5C 307.754,262.904 306.92,261.237 308,258.5C 309.356,257.62 310.856,257.286 312.5,257.5C 311.833,253.5 313.5,251.833 317.5,252.5C 317.759,248.76 317.426,245.094 316.5,241.5C 317.668,239.783 319.335,239.116 321.5,239.5C 321.5,236.5 321.5,233.5 321.5,230.5C 323.167,230.5 324.833,230.5 326.5,230.5C 326.183,227.428 326.516,224.428 327.5,221.5C 328.736,220.754 330.07,220.421 331.5,220.5C 331.489,218.453 331.156,216.453 330.5,214.5C 331.362,212.233 333.029,211.233 335.5,211.5C 335.336,208.813 335.503,206.146 336,203.5C 337.356,202.62 338.856,202.286 340.5,202.5C 340.25,199.786 340.083,197.119 340,194.5C 341.356,193.62 342.856,193.286 344.5,193.5C 344.5,190.5 344.5,187.5 344.5,184.5C 346.167,184.5 347.833,184.5 349.5,184.5C 349.768,181.881 349.435,179.381 348.5,177C 350.577,176.193 352.411,175.026 354,173.5C 354.018,171.203 353.851,168.869 353.5,166.5C 355.201,166.034 356.701,166.034 358,166.5C 358.333,163.5 358.667,160.5 359,157.5C 360.356,156.62 361.856,156.286 363.5,156.5C 362.922,153.388 362.922,150.388 363.5,147.5 Z"/></g>
<g><path style="opacity:0.004" fill="#fefffe" d="M 390.5,-0.5 C 391.833,-0.5 393.167,-0.5 394.5,-0.5C 393.167,2.16667 391.833,2.16667 390.5,-0.5 Z"/></g>
<g><path style="opacity:0.004" fill="#fefffe" d="M 332.5,3.5 C 335.548,3.49403 336.048,4.49403 334,6.5C 332.961,5.75618 332.461,4.75618 332.5,3.5 Z"/></g>
<g><path style="opacity:0.004" fill="#fefffe" d="M 395.5,3.5 C 398.548,3.49403 399.048,4.49403 397,6.5C 395.961,5.75618 395.461,4.75618 395.5,3.5 Z"/></g>
<g><path style="opacity:0.004" fill="#fefffe" d="M 328.5,7.5 C 330.048,7.82124 330.715,8.82124 330.5,10.5C 327.752,10.5983 327.086,9.59829 328.5,7.5 Z"/></g>
<g><path style="opacity:0.004" fill="#fefffe" d="M 400.5,7.5 C 404.31,8.75419 404.31,9.75419 400.5,10.5C 400.5,9.5 400.5,8.5 400.5,7.5 Z"/></g>
<g><path style="opacity:0.004" fill="#fefffe" d="M 323.5,12.5 C 324.5,12.5 325.5,12.5 326.5,12.5C 326.5,13.5 326.5,14.5 326.5,15.5C 325.5,15.5 324.5,15.5 323.5,15.5C 323.5,14.5 323.5,13.5 323.5,12.5 Z"/></g>
<g><path style="opacity:0.004" fill="#fefffe" d="M 404.5,12.5 C 405.5,12.5 406.5,12.5 407.5,12.5C 407.5,13.5 407.5,14.5 407.5,15.5C 406.5,15.5 405.5,15.5 404.5,15.5C 404.5,14.5 404.5,13.5 404.5,12.5 Z"/></g>
<g><path style="opacity:0.004" fill="#fefffe" d="M 318.5,21.5 C 319.5,21.5 320.5,21.5 321.5,21.5C 321.5,22.5 321.5,23.5 321.5,24.5C 320.5,24.5 319.5,24.5 318.5,24.5C 318.5,23.5 318.5,22.5 318.5,21.5 Z"/></g>
<g><path style="opacity:0.004" fill="#fefffe" d="M 409.5,21.5 C 410.5,21.5 411.5,21.5 412.5,21.5C 412.5,22.5 412.5,23.5 412.5,24.5C 411.5,24.5 410.5,24.5 409.5,24.5C 409.5,23.5 409.5,22.5 409.5,21.5 Z"/></g>
<g><path style="opacity:0.004" fill="#fefffe" d="M 314.5,30.5 C 318.31,31.7542 318.31,32.7542 314.5,33.5C 314.5,32.5 314.5,31.5 314.5,30.5 Z"/></g>
<g><path style="opacity:0.004" fill="#fefffe" d="M 414.5,30.5 C 416.048,30.8212 416.715,31.8212 416.5,33.5C 413.752,33.5983 413.086,32.5983 414.5,30.5 Z"/></g>
<g><path style="opacity:0.004" fill="#fefffe" d="M 310.5,39.5 C 312.048,39.8212 312.715,40.8212 312.5,42.5C 309.752,42.5983 309.086,41.5983 310.5,39.5 Z"/></g>
<g><path style="opacity:0.004" fill="#fefffe" d="M 418.5,39.5 C 422.31,40.7542 422.31,41.7542 418.5,42.5C 418.5,41.5 418.5,40.5 418.5,39.5 Z"/></g>
<g><path style="opacity:0.004" fill="#fefffe" d="M 305.5,48.5 C 307.048,48.8212 307.715,49.8212 307.5,51.5C 304.752,51.5983 304.086,50.5983 305.5,48.5 Z"/></g>
<g><path style="opacity:0.004" fill="#fefffe" d="M 423.5,48.5 C 427.31,49.7542 427.31,50.7542 423.5,51.5C 423.5,50.5 423.5,49.5 423.5,48.5 Z"/></g>
<g><path style="opacity:0.004" fill="#fefffe" d="M 300.5,58.5 C 303.548,58.494 304.048,59.494 302,61.5C 300.961,60.7562 300.461,59.7562 300.5,58.5 Z"/></g>
<g><path style="opacity:0.004" fill="#fefffe" d="M 427.5,58.5 C 430.548,58.494 431.048,59.494 429,61.5C 427.961,60.7562 427.461,59.7562 427.5,58.5 Z"/></g>
<g><path style="opacity:0.004" fill="#fefffe" d="M 295.5,67.5 C 296.5,67.5 297.5,67.5 298.5,67.5C 297.754,71.31 296.754,71.31 295.5,67.5 Z"/></g>
<g><path style="opacity:0.004" fill="#fefffe" d="M 432.5,67.5 C 435.957,67.6672 436.29,68.6672 433.5,70.5C 432.614,69.675 432.281,68.675 432.5,67.5 Z"/></g>
<g><path style="opacity:0.004" fill="#fefffe" d="M 291.5,76.5 C 292.5,76.5 293.5,76.5 294.5,76.5C 294.5,77.5 294.5,78.5 294.5,79.5C 293.5,79.5 292.5,79.5 291.5,79.5C 291.5,78.5 291.5,77.5 291.5,76.5 Z"/></g>
<g><path style="opacity:0.004" fill="#fefffe" d="M 436.5,76.5 C 437.5,76.5 438.5,76.5 439.5,76.5C 439.5,77.5 439.5,78.5 439.5,79.5C 438.5,79.5 437.5,79.5 436.5,79.5C 436.5,78.5 436.5,77.5 436.5,76.5 Z"/></g>
<g><path style="opacity:0.004" fill="#fefffe" d="M 287.5,85.5 C 289.048,85.8212 289.715,86.8212 289.5,88.5C 286.752,88.5983 286.086,87.5983 287.5,85.5 Z"/></g>
<g><path style="opacity:0.004" fill="#fefffe" d="M 441.5,85.5 C 445.31,86.7542 445.31,87.7542 441.5,88.5C 441.5,87.5 441.5,86.5 441.5,85.5 Z"/></g>
<g><path style="opacity:0.004" fill="#dbdbdb" d="M 282.5,94.5 C 284.465,94.9483 284.798,95.9483 283.5,97.5C 281.481,96.8671 281.147,95.8671 282.5,94.5 Z"/></g>
<g><path style="opacity:0.004" fill="#dbdbdb" d="M 446.5,94.5 C 449.674,94.9522 450.007,95.9522 447.5,97.5C 446.614,96.675 446.281,95.675 446.5,94.5 Z"/></g>
<g><path style="opacity:0.004" fill="#fefffe" d="M 278.5,103.5 C 280.625,104.368 280.791,105.368 279,106.5C 277.317,105.824 277.15,104.824 278.5,103.5 Z"/></g>
<g><path style="opacity:0.004" fill="#fefffe" d="M 451.5,103.5 C 453.625,104.368 453.791,105.368 452,106.5C 450.317,105.824 450.15,104.824 451.5,103.5 Z"/></g>
<g><path style="opacity:0.004" fill="#f0e4ff" d="M 272.5,113.5 C 273.5,113.5 274.5,113.5 275.5,113.5C 274.754,117.31 273.754,117.31 272.5,113.5 Z"/></g>
<g><path style="opacity:0.004" fill="#f0e4ff" d="M 455.5,113.5 C 458.957,113.667 459.29,114.667 456.5,116.5C 455.614,115.675 455.281,114.675 455.5,113.5 Z"/></g>
<g><path style="opacity:0.004" fill="#fefffe" d="M 268.5,122.5 C 271.548,122.494 272.048,123.494 270,125.5C 268.961,124.756 268.461,123.756 268.5,122.5 Z"/></g>
<g><path style="opacity:0.004" fill="#fefffe" d="M 459.5,122.5 C 462.548,122.494 463.048,123.494 461,125.5C 459.961,124.756 459.461,123.756 459.5,122.5 Z"/></g>
<g><path style="opacity:0.004" fill="#d6bcff" d="M 264.5,131.5 C 266.465,131.948 266.798,132.948 265.5,134.5C 264.614,133.675 264.281,132.675 264.5,131.5 Z"/></g>
<g><path style="opacity:0.004" fill="#d6bcff" d="M 464.5,131.5 C 466.465,131.948 466.798,132.948 465.5,134.5C 464.614,133.675 464.281,132.675 464.5,131.5 Z"/></g>
<g><path style="opacity:0.004" fill="#000000" d="M 260.5,141.5 C 261.833,142.167 261.833,142.167 260.5,141.5 Z"/></g>
<g><path style="opacity:0.004" fill="#000000" d="M 469.5,141.5 C 470.833,142.167 470.833,142.167 469.5,141.5 Z"/></g>
<g><path style="opacity:0.005" fill="#fefffe" d="M 363.5,157.5 C 364.833,157.5 366.167,157.5 367.5,157.5C 367.778,159.346 367.111,160.68 365.5,161.5C 363.889,160.68 363.222,159.346 363.5,157.5 Z"/></g>
<g><path style="opacity:0.004" fill="#fefffe" d="M 250.5,163.5 C 252.465,163.948 252.798,164.948 251.5,166.5C 249.481,165.867 249.147,164.867 250.5,163.5 Z"/></g>
<g><path style="opacity:0.004" fill="#fefffe" d="M 478.5,163.5 C 481.674,163.952 482.007,164.952 479.5,166.5C 478.614,165.675 478.281,164.675 478.5,163.5 Z"/></g>
<g><path style="opacity:0.004" fill="#dfdfdf" d="M 359.5,166.5 C 361.852,167.543 362.019,168.876 360,170.5C 358.232,169.318 358.065,167.985 359.5,166.5 Z"/></g>
<g><path style="opacity:0.004" fill="#dfdfdf" d="M 370.5,166.5 C 372.852,167.543 373.019,168.876 371,170.5C 369.232,169.318 369.065,167.985 370.5,166.5 Z"/></g>
<g><path style="opacity:0.004" fill="#fefffe" d="M 245.5,172.5 C 246.5,172.5 247.5,172.5 248.5,172.5C 248.5,173.5 248.5,174.5 248.5,175.5C 247.5,175.5 246.5,175.5 245.5,175.5C 245.5,174.5 245.5,173.5 245.5,172.5 Z"/></g>
<g><path style="opacity:0.004" fill="#fefffe" d="M 482.5,172.5 C 483.5,172.5 484.5,172.5 485.5,172.5C 485.5,173.5 485.5,174.5 485.5,175.5C 484.5,175.5 483.5,175.5 482.5,175.5C 482.5,174.5 482.5,173.5 482.5,172.5 Z"/></g>
<g><path style="opacity:0.004" fill="#fefffe" d="M 354.5,176.5 C 357.957,176.667 358.29,177.667 355.5,179.5C 354.614,178.675 354.281,177.675 354.5,176.5 Z"/></g>
<g><path style="opacity:0.004" fill="#fefffe" d="M 373.5,176.5 C 374.5,176.5 375.5,176.5 376.5,176.5C 375.754,180.31 374.754,180.31 373.5,176.5 Z"/></g>
<g><path style="opacity:0.004" fill="#fefffe" d="M 241.5,181.5 C 243.048,181.821 243.715,182.821 243.5,184.5C 240.752,184.598 240.086,183.598 241.5,181.5 Z"/></g>
<g><path style="opacity:0.004" fill="#fefffe" d="M 487.5,181.5 C 491.31,182.754 491.31,183.754 487.5,184.5C 487.5,183.5 487.5,182.5 487.5,181.5 Z"/></g>
<g><path style="opacity:0.004" fill="#fefffe" d="M 349.5,185.5 C 350.5,185.5 351.5,185.5 352.5,185.5C 351.754,189.31 350.754,189.31 349.5,185.5 Z"/></g>
<g><path style="opacity:0.004" fill="#fefffe" d="M 378.5,185.5 C 381.957,185.667 382.29,186.667 379.5,188.5C 378.614,187.675 378.281,186.675 378.5,185.5 Z"/></g>
<g><path style="opacity:0.004" fill="#fefffe" d="M 237.5,190.5 C 239.625,191.368 239.791,192.368 238,193.5C 236.317,192.824 236.15,191.824 237.5,190.5 Z"/></g>
<g><path style="opacity:0.004" fill="#fefffe" d="M 492.5,190.5 C 494.625,191.368 494.791,192.368 493,193.5C 491.317,192.824 491.15,191.824 492.5,190.5 Z"/></g>
<g><path style="opacity:0.004" fill="#fefffe" d="M 345.5,194.5 C 348.957,194.667 349.29,195.667 346.5,197.5C 345.614,196.675 345.281,195.675 345.5,194.5 Z"/></g>
<g><path style="opacity:0.004" fill="#fefffe" d="M 382.5,194.5 C 383.5,194.5 384.5,194.5 385.5,194.5C 384.754,198.31 383.754,198.31 382.5,194.5 Z"/></g>
<g><path style="opacity:0.004" fill="#fefffe" d="M 231.5,200.5 C 232.5,200.5 233.5,200.5 234.5,200.5C 233.754,204.31 232.754,204.31 231.5,200.5 Z"/></g>
<g><path style="opacity:0.004" fill="#fefffe" d="M 496.5,200.5 C 499.957,200.667 500.29,201.667 497.5,203.5C 496.614,202.675 496.281,201.675 496.5,200.5 Z"/></g>
<g><path style="opacity:0.004" fill="#fefffe" d="M 340.5,203.5 C 341.5,203.5 342.5,203.5 343.5,203.5C 343.5,204.5 343.5,205.5 343.5,206.5C 342.5,206.5 341.5,206.5 340.5,206.5C 340.5,205.5 340.5,204.5 340.5,203.5 Z"/></g>
<g><path style="opacity:0.004" fill="#fefffe" d="M 387.5,203.5 C 388.5,203.5 389.5,203.5 390.5,203.5C 390.5,204.5 390.5,205.5 390.5,206.5C 389.5,206.5 388.5,206.5 387.5,206.5C 387.5,205.5 387.5,204.5 387.5,203.5 Z"/></g>
<g><path style="opacity:0.004" fill="#fefffe" d="M 227.5,209.5 C 230.674,209.952 231.007,210.952 228.5,212.5C 226.481,211.867 226.147,210.867 227.5,209.5 Z"/></g>
<g><path style="opacity:0.004" fill="#fefffe" d="M 501.5,209.5 C 504.674,209.952 505.007,210.952 502.5,212.5C 500.481,211.867 500.147,210.867 501.5,209.5 Z"/></g>
<g><path style="opacity:0.004" fill="#fefffe" d="M 336.5,212.5 C 339.674,212.952 340.007,213.952 337.5,215.5C 335.481,214.867 335.147,213.867 336.5,212.5 Z"/></g>
<g><path style="opacity:0.004" fill="#fefffe" d="M 392.5,212.5 C 395.674,212.952 396.007,213.952 393.5,215.5C 391.481,214.867 391.147,213.867 392.5,212.5 Z"/></g>
<g><path style="opacity:0.004" fill="#fefffe" d="M 222.5,218.5 C 223.5,218.5 224.5,218.5 225.5,218.5C 225.5,219.5 225.5,220.5 225.5,221.5C 224.5,221.5 223.5,221.5 222.5,221.5C 222.5,220.5 222.5,219.5 222.5,218.5 Z"/></g>
<g><path style="opacity:0.004" fill="#fefffe" d="M 505.5,218.5 C 506.5,218.5 507.5,218.5 508.5,218.5C 508.5,219.5 508.5,220.5 508.5,221.5C 507.5,221.5 506.5,221.5 505.5,221.5C 505.5,220.5 505.5,219.5 505.5,218.5 Z"/></g>
<g><path style="opacity:0.004" fill="#fefffe" d="M 332.5,221.5 C 334.852,222.543 335.019,223.876 333,225.5C 331.232,224.318 331.065,222.985 332.5,221.5 Z"/></g>
<g><path style="opacity:0.004" fill="#fefffe" d="M 397.5,221.5 C 399.852,222.543 400.019,223.876 398,225.5C 396.232,224.318 396.065,222.985 397.5,221.5 Z"/></g>
<g><path style="opacity:0.004" fill="#fefffe" d="M 218.5,227.5 C 220.048,227.821 220.715,228.821 220.5,230.5C 217.752,230.598 217.086,229.598 218.5,227.5 Z"/></g>
<g><path style="opacity:0.004" fill="#fefffe" d="M 510.5,227.5 C 514.31,228.754 514.31,229.754 510.5,230.5C 510.5,229.5 510.5,228.5 510.5,227.5 Z"/></g>
<g><path style="opacity:0.004" fill="#fefffe" d="M 326.5,231.5 C 329.548,231.494 330.048,232.494 328,234.5C 326.961,233.756 326.461,232.756 326.5,231.5 Z"/></g>
<g><path style="opacity:0.004" fill="#fefffe" d="M 401.5,231.5 C 404.548,231.494 405.048,232.494 403,234.5C 401.961,233.756 401.461,232.756 401.5,231.5 Z"/></g>
<g><path style="opacity:0.004" fill="#fefffe" d="M 213.5,236.5 C 217.31,237.754 217.31,238.754 213.5,239.5C 213.5,238.5 213.5,237.5 213.5,236.5 Z"/></g>
<g><path style="opacity:0.004" fill="#fefffe" d="M 515.5,236.5 C 517.048,236.821 517.715,237.821 517.5,239.5C 514.752,239.598 514.086,238.598 515.5,236.5 Z"/></g>
<g><path style="opacity:0.004" fill="#fefffe" d="M 322.5,240.5 C 325.957,240.667 326.29,241.667 323.5,243.5C 322.614,242.675 322.281,241.675 322.5,240.5 Z"/></g>
<g><path style="opacity:0.004" fill="#fefffe" d="M 405.5,240.5 C 406.5,240.5 407.5,240.5 408.5,240.5C 407.754,244.31 406.754,244.31 405.5,240.5 Z"/></g>
<g><path style="opacity:0.004" fill="#fefffe" d="M 209.5,245.5 C 211.048,245.821 211.715,246.821 211.5,248.5C 208.752,248.598 208.086,247.598 209.5,245.5 Z"/></g>
<g><path style="opacity:0.004" fill="#fefffe" d="M 519.5,245.5 C 523.31,246.754 523.31,247.754 519.5,248.5C 519.5,247.5 519.5,246.5 519.5,245.5 Z"/></g>
<g><path style="opacity:0.004" fill="#fefffe" d="M 317.5,254.5 C 318.675,254.281 319.675,254.614 320.5,255.5C 318.948,256.798 317.948,256.465 317.5,254.5 Z"/></g>
<g><path style="opacity:0.004" fill="#fefffe" d="M 410.5,254.5 C 411.675,254.281 412.675,254.614 413.5,255.5C 411.948,256.798 410.948,256.465 410.5,254.5 Z"/></g>
<g><path style="opacity:0.004" fill="#dfdfdf" d="M 205.5,254.5 C 207.852,255.543 208.019,256.876 206,258.5C 204.232,257.318 204.065,255.985 205.5,254.5 Z"/></g>
<g><path style="opacity:0.004" fill="#dfdfdf" d="M 524.5,254.5 C 526.852,255.543 527.019,256.876 525,258.5C 523.232,257.318 523.065,255.985 524.5,254.5 Z"/></g>
<g><path style="opacity:0.004" fill="#fefffe" d="M 200.5,264.5 C 202.973,264.947 203.14,265.947 201,267.5C 199.272,266.648 199.105,265.648 200.5,264.5 Z"/></g>
<g><path style="opacity:0.004" fill="#fefffe" d="M 528.5,264.5 C 531.293,264.74 531.793,265.74 530,267.5C 528.961,266.756 528.461,265.756 528.5,264.5 Z"/></g>
<g><path style="opacity:0.004" fill="#fefffe" d="M 195.5,273.5 C 197.465,273.948 197.798,274.948 196.5,276.5C 195.614,275.675 195.281,274.675 195.5,273.5 Z"/></g>
<g><path style="opacity:0.004" fill="#fefffe" d="M 533.5,273.5 C 535.465,273.948 535.798,274.948 534.5,276.5C 533.614,275.675 533.281,274.675 533.5,273.5 Z"/></g>
<g><path style="opacity:0.004" fill="#000000" d="M 191.5,283.5 C 192.833,284.167 192.833,284.167 191.5,283.5 Z"/></g>
<g><path style="opacity:0.004" fill="#000000" d="M 538.5,283.5 C 539.833,284.167 539.833,284.167 538.5,283.5 Z"/></g>
<g><path style="opacity:0.004" fill="#fefffe" d="M 185.5,296.5 C 186.5,296.5 187.5,296.5 188.5,296.5C 187.754,300.31 186.754,300.31 185.5,296.5 Z"/></g>
<g><path style="opacity:0.004" fill="#fefffe" d="M 542.5,296.5 C 545.957,296.667 546.29,297.667 543.5,299.5C 542.614,298.675 542.281,297.675 542.5,296.5 Z"/></g>
<g><path style="opacity:0.004" fill="#fefffe" d="M 181.5,305.5 C 185.31,306.754 185.31,307.754 181.5,308.5C 181.5,307.5 181.5,306.5 181.5,305.5 Z"/></g>
<g><path style="opacity:0.004" fill="#fefffe" d="M 547.5,305.5 C 549.048,305.821 549.715,306.821 549.5,308.5C 546.752,308.598 546.086,307.598 547.5,305.5 Z"/></g>
<g><path style="opacity:0.004" fill="#fefffe" d="M 177.5,314.5 C 179.048,314.821 179.715,315.821 179.5,317.5C 176.752,317.598 176.086,316.598 177.5,314.5 Z"/></g>
<g><path style="opacity:0.004" fill="#fefffe" d="M 551.5,314.5 C 555.31,315.754 555.31,316.754 551.5,317.5C 551.5,316.5 551.5,315.5 551.5,314.5 Z"/></g>
<g><path style="opacity:0.004" fill="#fefffe" d="M 172.5,323.5 C 174.465,323.948 174.798,324.948 173.5,326.5C 172.614,325.675 172.281,324.675 172.5,323.5 Z"/></g>
<g><path style="opacity:0.004" fill="#fefffe" d="M 556.5,323.5 C 558.465,323.948 558.798,324.948 557.5,326.5C 556.614,325.675 556.281,324.675 556.5,323.5 Z"/></g>
<g><path style="opacity:0.004" fill="#fefffe" d="M 168.5,332.5 C 170.625,333.368 170.791,334.368 169,335.5C 167.317,334.824 167.15,333.824 168.5,332.5 Z"/></g>
<g><path style="opacity:0.004" fill="#fefffe" d="M 561.5,332.5 C 563.625,333.368 563.791,334.368 562,335.5C 560.317,334.824 560.15,333.824 561.5,332.5 Z"/></g>
<g><path style="opacity:0.004" fill="#fefffe" d="M 162.5,342.5 C 163.5,342.5 164.5,342.5 165.5,342.5C 164.754,346.31 163.754,346.31 162.5,342.5 Z"/></g>
<g><path style="opacity:0.004" fill="#fefffe" d="M 565.5,342.5 C 568.957,342.667 569.29,343.667 566.5,345.5C 565.614,344.675 565.281,343.675 565.5,342.5 Z"/></g>
<g><path style="opacity:0.004" fill="#fefffe" d="M 271.5,345.5 C 272.5,345.5 273.5,345.5 274.5,345.5C 274.5,346.5 274.5,347.5 274.5,348.5C 273.5,348.5 272.5,348.5 271.5,348.5C 271.5,347.5 271.5,346.5 271.5,345.5 Z"/></g>
<g><path style="opacity:0.004" fill="#fefffe" d="M 456.5,345.5 C 457.5,345.5 458.5,345.5 459.5,345.5C 459.5,346.5 459.5,347.5 459.5,348.5C 458.5,348.5 457.5,348.5 456.5,348.5C 456.5,347.5 456.5,346.5 456.5,345.5 Z"/></g>
<g><path style="opacity:0.004" fill="#fefffe" d="M 158.5,351.5 C 159.5,351.5 160.5,351.5 161.5,351.5C 161.5,352.5 161.5,353.5 161.5,354.5C 160.5,354.5 159.5,354.5 158.5,354.5C 158.5,353.5 158.5,352.5 158.5,351.5 Z"/></g>
<g><path style="opacity:0.004" fill="#fefffe" d="M 569.5,351.5 C 570.5,351.5 571.5,351.5 572.5,351.5C 572.5,352.5 572.5,353.5 572.5,354.5C 571.5,354.5 570.5,354.5 569.5,354.5C 569.5,353.5 569.5,352.5 569.5,351.5 Z"/></g>
<g><path style="opacity:0.004" fill="#fefffe" d="M 267.5,354.5 C 271.31,355.754 271.31,356.754 267.5,357.5C 267.5,356.5 267.5,355.5 267.5,354.5 Z"/></g>
<g><path style="opacity:0.004" fill="#fefffe" d="M 461.5,354.5 C 463.048,354.821 463.715,355.821 463.5,357.5C 460.752,357.598 460.086,356.598 461.5,354.5 Z"/></g>
<g><path style="opacity:0.004" fill="#fefffe" d="M 153.5,360.5 C 154.5,360.5 155.5,360.5 156.5,360.5C 156.5,361.5 156.5,362.5 156.5,363.5C 155.5,363.5 154.5,363.5 153.5,363.5C 153.5,362.5 153.5,361.5 153.5,360.5 Z"/></g>
<g><path style="opacity:0.004" fill="#fefffe" d="M 574.5,360.5 C 575.5,360.5 576.5,360.5 577.5,360.5C 577.5,361.5 577.5,362.5 577.5,363.5C 576.5,363.5 575.5,363.5 574.5,363.5C 574.5,362.5 574.5,361.5 574.5,360.5 Z"/></g>
<g><path style="opacity:0.004" fill="#fefffe" d="M 263.5,363.5 C 265.852,364.543 266.019,365.876 264,367.5C 262.232,366.318 262.065,364.985 263.5,363.5 Z"/></g>
<g><path style="opacity:0.004" fill="#fefffe" d="M 466.5,363.5 C 468.852,364.543 469.019,365.876 467,367.5C 465.232,366.318 465.065,364.985 466.5,363.5 Z"/></g>
<g><path style="opacity:0.004" fill="#fefffe" d="M 149.5,369.5 C 153.31,370.754 153.31,371.754 149.5,372.5C 149.5,371.5 149.5,370.5 149.5,369.5 Z"/></g>
<g><path style="opacity:0.004" fill="#fefffe" d="M 579.5,369.5 C 581.048,369.821 581.715,370.821 581.5,372.5C 578.752,372.598 578.086,371.598 579.5,369.5 Z"/></g>
<g><path style="opacity:0.004" fill="#fefffe" d="M 258.5,373.5 C 261.957,373.667 262.29,374.667 259.5,376.5C 258.614,375.675 258.281,374.675 258.5,373.5 Z"/></g>
<g><path style="opacity:0.004" fill="#fefffe" d="M 469.5,373.5 C 470.5,373.5 471.5,373.5 472.5,373.5C 471.754,377.31 470.754,377.31 469.5,373.5 Z"/></g>
<g><path style="opacity:0.004" fill="#fefffe" d="M 145.5,378.5 C 147.465,378.948 147.798,379.948 146.5,381.5C 145.614,380.675 145.281,379.675 145.5,378.5 Z"/></g>
<g><path style="opacity:0.004" fill="#fefffe" d="M 583.5,378.5 C 585.465,378.948 585.798,379.948 584.5,381.5C 583.614,380.675 583.281,379.675 583.5,378.5 Z"/></g>
<g><path style="opacity:0.004" fill="#fefffe" d="M 253.5,382.5 C 256.957,382.667 257.29,383.667 254.5,385.5C 253.614,384.675 253.281,383.675 253.5,382.5 Z"/></g>
<g><path style="opacity:0.004" fill="#fefffe" d="M 474.5,382.5 C 475.5,382.5 476.5,382.5 477.5,382.5C 476.754,386.31 475.754,386.31 474.5,382.5 Z"/></g>
<g><path style="opacity:0.004" fill="#fefffe" d="M 248.5,391.5 C 249.5,391.5 250.5,391.5 251.5,391.5C 250.754,395.31 249.754,395.31 248.5,391.5 Z"/></g>
<g><path style="opacity:0.004" fill="#fefffe" d="M 479.5,391.5 C 482.957,391.667 483.29,392.667 480.5,394.5C 479.614,393.675 479.281,392.675 479.5,391.5 Z"/></g>
<g><path style="opacity:0.004" fill="#fefffe" d="M 145.5,396.5 C 147.973,396.947 148.14,397.947 146,399.5C 145.517,398.552 145.351,397.552 145.5,396.5 Z"/></g>
<g><path style="opacity:0.004" fill="#fefffe" d="M 244.5,396.5 C 247.957,396.667 248.29,397.667 245.5,399.5C 244.614,398.675 244.281,397.675 244.5,396.5 Z"/></g>
<g><path style="opacity:0.004" fill="#fefffe" d="M 483.5,396.5 C 484.5,396.5 485.5,396.5 486.5,396.5C 485.754,400.31 484.754,400.31 483.5,396.5 Z"/></g>
<g><path style="opacity:0.004" fill="#fefffe" d="M 583.5,396.5 C 585.225,396.843 585.725,397.843 585,399.5C 583.961,398.756 583.461,397.756 583.5,396.5 Z"/></g>
<g><path style="opacity:0.004" fill="#fefffe" d="M 341.5,415.5 C 342.5,415.5 343.5,415.5 344.5,415.5C 344.5,416.5 344.5,417.5 344.5,418.5C 343.5,418.5 342.5,418.5 341.5,418.5C 341.5,417.5 341.5,416.5 341.5,415.5 Z"/></g>
<g><path style="opacity:0.004" fill="#fefffe" d="M 386.5,415.5 C 387.5,415.5 388.5,415.5 389.5,415.5C 389.5,416.5 389.5,417.5 389.5,418.5C 388.5,418.5 387.5,418.5 386.5,418.5C 386.5,417.5 386.5,416.5 386.5,415.5 Z"/></g>
<g><path style="opacity:0.95" fill="#fefefe" d="M 394.5,732.5 C 375.167,732.5 355.833,732.5 336.5,732.5C 336.582,730.748 335.749,729.748 334,729.5C 327.212,730.445 320.379,730.778 313.5,730.5C 313.5,728.833 313.5,727.167 313.5,725.5C 307.5,725.5 301.5,725.5 295.5,725.5C 295.767,723.029 294.767,721.362 292.5,720.5C 288.831,721.722 285.165,721.722 281.5,720.5C 281.5,719.167 281.5,717.833 281.5,716.5C 278.5,716.5 275.5,716.5 272.5,716.5C 272.714,714.856 272.38,713.356 271.5,712C 268.854,711.503 266.187,711.336 263.5,711.5C 263.756,709.088 262.756,707.421 260.5,706.5C 258.253,707.374 255.92,707.708 253.5,707.5C 253.5,705.833 253.5,704.167 253.5,702.5C 250.833,702.5 248.167,702.5 245.5,702.5C 245.5,699.167 243.833,697.5 240.5,697.5C 240.716,695.319 239.883,693.653 238,692.5C 235.959,693.423 233.792,693.756 231.5,693.5C 232.167,689.5 230.5,687.833 226.5,688.5C 227.21,685.14 225.876,683.307 222.5,683C 220.5,680.333 218.5,677.667 216.5,675C 213.591,675.284 210.758,675.117 208,674.5C 207.502,671.518 207.335,668.518 207.5,665.5C 204.612,665.78 203.112,664.447 203,661.5C 200.396,659.769 197.896,657.935 195.5,656C 195,652.833 193.167,651 190,650.5C 189.517,649.552 189.351,648.552 189.5,647.5C 187.799,647.034 186.299,647.034 185,647.5C 184.667,644.5 184.333,641.5 184,638.5C 182.989,637.663 181.822,637.33 180.5,637.5C 180.616,634.09 178.95,632.756 175.5,633.5C 175.5,630.5 175.5,627.5 175.5,624.5C 173.833,624.5 172.167,624.5 170.5,624.5C 170.292,622.08 170.626,619.747 171.5,617.5C 170.579,615.244 168.912,614.244 166.5,614.5C 166.664,611.813 166.497,609.146 166,606.5C 164.644,605.62 163.144,605.286 161.5,605.5C 161.244,603.208 161.577,601.041 162.5,599C 161.088,597.209 159.255,596.042 157,595.5C 156.337,592.131 156.504,588.797 157.5,585.5C 156.638,583.233 154.971,582.233 152.5,582.5C 152.666,578.154 152.499,573.821 152,569.5C 150.644,568.62 149.144,568.286 147.5,568.5C 147.192,558.78 147.526,549.113 148.5,539.5C 145.774,533.193 144.774,526.527 145.5,519.5C 175.167,519.5 204.833,519.5 234.5,519.5C 234.169,527.196 234.503,534.862 235.5,542.5C 236.736,543.246 238.07,543.579 239.5,543.5C 239.334,548.844 239.501,554.177 240,559.5C 241.676,560.061 243.009,561.061 244,562.5C 243.845,564.811 243.845,567.144 244,569.5C 245.356,570.38 246.856,570.714 248.5,570.5C 248.336,573.187 248.503,575.854 249,578.5C 250.011,579.337 251.178,579.67 252.5,579.5C 251.833,583.5 253.5,585.167 257.5,584.5C 257.336,587.187 257.503,589.854 258,592.5C 259.011,593.337 260.178,593.67 261.5,593.5C 261.5,596.833 263.167,598.5 266.5,598.5C 266.167,601.5 267.5,602.833 270.5,602.5C 270.5,605.833 272.167,607.5 275.5,607.5C 275.351,608.552 275.517,609.552 276,610.5C 278.386,611.763 280.219,613.597 281.5,616C 282.448,616.483 283.448,616.649 284.5,616.5C 284.33,617.822 284.663,618.989 285.5,620C 288.146,620.497 290.813,620.664 293.5,620.5C 292.908,624.074 294.408,626.074 298,626.5C 298.483,627.448 298.649,628.448 298.5,629.5C 301.5,629.5 304.5,629.5 307.5,629.5C 307.286,631.144 307.62,632.644 308.5,634C 311.146,634.497 313.813,634.664 316.5,634.5C 315.842,638.677 317.508,640.177 321.5,639C 322.059,638.275 322.392,637.442 322.5,636.5C 321.34,572.188 321.174,507.855 322,443.5C 324.179,442.884 326.012,441.717 327.5,440C 326.577,437.959 326.244,435.792 326.5,433.5C 329.86,434.21 331.693,432.876 332,429.5C 334.693,429.047 336.527,427.547 337.5,425C 337.167,424.667 336.833,424.333 336.5,424C 339.482,423.502 342.482,423.335 345.5,423.5C 345.5,421.833 345.5,420.167 345.5,418.5C 358.833,418.5 372.167,418.5 385.5,418.5C 385.5,420.167 385.5,421.833 385.5,423.5C 388.518,423.335 391.518,423.502 394.5,424C 393.81,426.87 395.143,428.537 398.5,429C 398.926,432.592 400.926,434.092 404.5,433.5C 404.756,435.792 404.423,437.959 403.5,440C 404.988,441.717 406.821,442.884 409,443.5C 409.826,507.855 409.66,572.188 408.5,636.5C 409.096,639.246 410.763,640.08 413.5,639C 414.38,637.644 414.714,636.144 414.5,634.5C 417.187,634.664 419.854,634.497 422.5,634C 423.38,632.644 423.714,631.144 423.5,629.5C 426.5,629.5 429.5,629.5 432.5,629.5C 432.406,626.459 433.906,624.793 437,624.5C 437.49,623.207 437.657,621.873 437.5,620.5C 440.187,620.664 442.854,620.497 445.5,620C 446.337,618.989 446.67,617.822 446.5,616.5C 447.552,616.649 448.552,616.483 449.5,616C 450.781,613.597 452.614,611.763 455,610.5C 455.483,609.552 455.649,608.552 455.5,607.5C 458.833,607.5 460.5,605.833 460.5,602.5C 463.5,602.833 464.833,601.5 464.5,598.5C 467.833,598.5 469.5,596.833 469.5,593.5C 470.822,593.67 471.989,593.337 473,592.5C 473.497,589.854 473.664,587.187 473.5,584.5C 477.5,585.167 479.167,583.5 478.5,579.5C 479.822,579.67 480.989,579.337 482,578.5C 482.497,575.854 482.664,573.187 482.5,570.5C 484.144,570.714 485.644,570.38 487,569.5C 487.155,567.144 487.155,564.811 487,562.5C 487.991,561.061 489.324,560.061 491,559.5C 491.499,554.177 491.666,548.844 491.5,543.5C 492.93,543.579 494.264,543.246 495.5,542.5C 496.497,534.862 496.831,527.196 496.5,519.5C 526.167,519.5 555.833,519.5 585.5,519.5C 585.831,526.863 585.497,534.197 584.5,541.5C 583.28,541.887 582.613,542.72 582.5,544C 583.455,552.124 583.788,560.29 583.5,568.5C 582.07,568.421 580.736,568.754 579.5,569.5C 578.508,573.783 578.174,578.116 578.5,582.5C 576.029,582.233 574.362,583.233 573.5,585.5C 574.496,588.797 574.663,592.131 574,595.5C 571.745,596.042 569.912,597.209 568.5,599C 569.423,601.041 569.756,603.208 569.5,605.5C 567.856,605.286 566.356,605.62 565,606.5C 564.503,609.146 564.336,611.813 564.5,614.5C 562.088,614.244 560.421,615.244 559.5,617.5C 560.374,619.747 560.708,622.08 560.5,624.5C 558.833,624.5 557.167,624.5 555.5,624.5C 555.5,627.5 555.5,630.5 555.5,633.5C 552.05,632.756 550.384,634.09 550.5,637.5C 549.178,637.33 548.011,637.663 547,638.5C 546.667,641.5 546.333,644.5 546,647.5C 544.701,647.034 543.201,647.034 541.5,647.5C 541.78,650.388 540.447,651.888 537.5,652C 536.809,653.067 536.309,654.234 536,655.5C 533.333,657.5 530.667,659.5 528,661.5C 527.888,664.447 526.388,665.78 523.5,665.5C 523.665,668.518 523.498,671.518 523,674.5C 520.242,675.117 517.409,675.284 514.5,675C 514.207,678.094 512.541,679.594 509.5,679.5C 509.78,682.388 508.447,683.888 505.5,684C 505.059,686.941 503.393,688.774 500.5,689.5C 499.289,690.72 499.289,691.887 500.5,693C 497.5,693.333 494.5,693.667 491.5,694C 490.663,695.011 490.33,696.178 490.5,697.5C 487.101,697.55 485.768,699.05 486.5,702C 483.518,702.498 480.518,702.665 477.5,702.5C 477.5,704.167 477.5,705.833 477.5,707.5C 475.08,707.708 472.747,707.374 470.5,706.5C 468.244,707.421 467.244,709.088 467.5,711.5C 464.813,711.336 462.146,711.503 459.5,712C 458.62,713.356 458.286,714.856 458.5,716.5C 455.5,716.5 452.5,716.5 449.5,716.5C 449.5,717.833 449.5,719.167 449.5,720.5C 445.835,721.722 442.169,721.722 438.5,720.5C 436.233,721.362 435.233,723.029 435.5,725.5C 429.5,725.5 423.5,725.5 417.5,725.5C 417.5,727.167 417.5,728.833 417.5,730.5C 410.621,730.778 403.788,730.445 397,729.5C 395.251,729.748 394.418,730.748 394.5,732.5 Z"/></g>
<g><path style="opacity:0.004" fill="#c6c6c6" d="M 333.5,420.5 C 336.137,422.154 335.803,422.654 332.5,422C 333.056,421.617 333.389,421.117 333.5,420.5 Z"/></g>
<g><path style="opacity:0.004" fill="#c6c6c6" d="M 396.5,420.5 C 399.137,422.154 398.803,422.654 395.5,422C 396.056,421.617 396.389,421.117 396.5,420.5 Z"/></g>
<g><path style="opacity:0.004" fill="#fefffe" d="M 328.5,424.5 C 330.048,424.821 330.715,425.821 330.5,427.5C 327.752,427.598 327.086,426.598 328.5,424.5 Z"/></g>
<g><path style="opacity:0.004" fill="#fefffe" d="M 400.5,424.5 C 404.31,425.754 404.31,426.754 400.5,427.5C 400.5,426.5 400.5,425.5 400.5,424.5 Z"/></g>
<g><path style="opacity:0.004" fill="#fefffe" d="M 323.5,429.5 C 326.957,429.667 327.29,430.667 324.5,432.5C 323.614,431.675 323.281,430.675 323.5,429.5 Z"/></g>
<g><path style="opacity:0.004" fill="#fefffe" d="M 404.5,429.5 C 405.5,429.5 406.5,429.5 407.5,429.5C 406.754,433.31 405.754,433.31 404.5,429.5 Z"/></g>
<g><path style="opacity:0.004" fill="#f1e7ff" d="M 318.5,438.5 C 319.5,438.5 320.5,438.5 321.5,438.5C 321.5,439.5 321.5,440.5 321.5,441.5C 320.5,441.5 319.5,441.5 318.5,441.5C 318.5,440.5 318.5,439.5 318.5,438.5 Z"/></g>
<g><path style="opacity:0.004" fill="#f1e7ff" d="M 409.5,438.5 C 410.5,438.5 411.5,438.5 412.5,438.5C 412.5,439.5 412.5,440.5 412.5,441.5C 411.5,441.5 410.5,441.5 409.5,441.5C 409.5,440.5 409.5,439.5 409.5,438.5 Z"/></g>
<g><path style="opacity:0.004" fill="#fefffe" d="M 235.5,516.5 C 238.957,516.667 239.29,517.667 236.5,519.5C 235.614,518.675 235.281,517.675 235.5,516.5 Z"/></g>
<g><path style="opacity:0.004" fill="#fefffe" d="M 492.5,516.5 C 493.5,516.5 494.5,516.5 495.5,516.5C 494.754,520.31 493.754,520.31 492.5,516.5 Z"/></g>
<g><path style="opacity:0.004" fill="#fefffe" d="M 239.5,539.5 C 242.548,539.494 243.048,540.494 241,542.5C 239.961,541.756 239.461,540.756 239.5,539.5 Z"/></g>
<g><path style="opacity:0.004" fill="#fefffe" d="M 488.5,539.5 C 491.548,539.494 492.048,540.494 490,542.5C 488.961,541.756 488.461,540.756 488.5,539.5 Z"/></g>
<g><path style="opacity:0.004" fill="#fefffe" d="M 249.5,566.5 C 251.048,566.821 251.715,567.821 251.5,569.5C 248.752,569.598 248.086,568.598 249.5,566.5 Z"/></g>
<g><path style="opacity:0.004" fill="#fefffe" d="M 479.5,566.5 C 483.31,567.754 483.31,568.754 479.5,569.5C 479.5,568.5 479.5,567.5 479.5,566.5 Z"/></g>
<g><path style="opacity:0.004" fill="#fefffe" d="M 145.5,570.5 C 147.337,570.639 147.67,571.306 146.5,572.5C 145.702,572.043 145.369,571.376 145.5,570.5 Z"/></g>
<g><path style="opacity:0.004" fill="#fefffe" d="M 583.5,570.5 C 585.337,570.639 585.67,571.306 584.5,572.5C 583.702,572.043 583.369,571.376 583.5,570.5 Z"/></g>
<g><path style="opacity:0.004" fill="#fefffe" d="M 254.5,576.5 C 255.833,577.167 255.833,577.167 254.5,576.5 Z"/></g>
<g><path style="opacity:0.004" fill="#fefffe" d="M 475.5,576.5 C 476.833,577.167 476.833,577.167 475.5,576.5 Z"/></g>
<g><path style="opacity:0.004" fill="#fefffe" d="M 258.5,580.5 C 261.674,580.952 262.007,581.952 259.5,583.5C 258.614,582.675 258.281,581.675 258.5,580.5 Z"/></g>
<g><path style="opacity:0.004" fill="#fefffe" d="M 470.5,580.5 C 472.465,580.948 472.798,581.948 471.5,583.5C 469.481,582.867 469.147,581.867 470.5,580.5 Z"/></g>
<g><path style="opacity:0.004" fill="#fefffe" d="M 149.5,583.5 C 153.31,584.754 153.31,585.754 149.5,586.5C 149.5,585.5 149.5,584.5 149.5,583.5 Z"/></g>
<g><path style="opacity:0.004" fill="#fefffe" d="M 579.5,583.5 C 581.048,583.821 581.715,584.821 581.5,586.5C 578.752,586.598 578.086,585.598 579.5,583.5 Z"/></g>
<g><path style="opacity:0.004" fill="#fefffe" d="M 262.5,589.5 C 263.5,589.5 264.5,589.5 265.5,589.5C 265.5,590.5 265.5,591.5 265.5,592.5C 264.5,592.5 263.5,592.5 262.5,592.5C 262.5,591.5 262.5,590.5 262.5,589.5 Z"/></g>
<g><path style="opacity:0.004" fill="#fefffe" d="M 465.5,589.5 C 466.5,589.5 467.5,589.5 468.5,589.5C 468.5,590.5 468.5,591.5 468.5,592.5C 467.5,592.5 466.5,592.5 465.5,592.5C 465.5,591.5 465.5,590.5 465.5,589.5 Z"/></g>
<g><path style="opacity:0.004" fill="#fefffe" d="M 267.5,594.5 C 270.957,594.667 271.29,595.667 268.5,597.5C 267.614,596.675 267.281,595.675 267.5,594.5 Z"/></g>
<g><path style="opacity:0.004" fill="#fefffe" d="M 460.5,594.5 C 461.5,594.5 462.5,594.5 463.5,594.5C 462.754,598.31 461.754,598.31 460.5,594.5 Z"/></g>
<g><path style="opacity:0.004" fill="#fefffe" d="M 153.5,597.5 C 154.5,597.5 155.5,597.5 156.5,597.5C 156.5,598.5 156.5,599.5 156.5,600.5C 155.5,600.5 154.5,600.5 153.5,600.5C 153.5,599.5 153.5,598.5 153.5,597.5 Z"/></g>
<g><path style="opacity:0.004" fill="#fefffe" d="M 574.5,597.5 C 575.5,597.5 576.5,597.5 577.5,597.5C 577.5,598.5 577.5,599.5 577.5,600.5C 576.5,600.5 575.5,600.5 574.5,600.5C 574.5,599.5 574.5,598.5 574.5,597.5 Z"/></g>
<g><path style="opacity:0.004" fill="#fefffe" d="M 272.5,598.5 C 274.048,598.821 274.715,599.821 274.5,601.5C 271.752,601.598 271.086,600.598 272.5,598.5 Z"/></g>
<g><path style="opacity:0.004" fill="#fefffe" d="M 456.5,598.5 C 460.31,599.754 460.31,600.754 456.5,601.5C 456.5,600.5 456.5,599.5 456.5,598.5 Z"/></g>
<g><path style="opacity:0.004" fill="#fefffe" d="M 276.5,603.5 C 279.957,603.667 280.29,604.667 277.5,606.5C 276.614,605.675 276.281,604.675 276.5,603.5 Z"/></g>
<g><path style="opacity:0.004" fill="#fefffe" d="M 451.5,603.5 C 452.5,603.5 453.5,603.5 454.5,603.5C 453.754,607.31 452.754,607.31 451.5,603.5 Z"/></g>
<g><path style="opacity:0.004" fill="#fefffe" d="M 158.5,606.5 C 162.31,607.754 162.31,608.754 158.5,609.5C 158.5,608.5 158.5,607.5 158.5,606.5 Z"/></g>
<g><path style="opacity:0.004" fill="#fefffe" d="M 570.5,606.5 C 572.048,606.821 572.715,607.821 572.5,609.5C 569.752,609.598 569.086,608.598 570.5,606.5 Z"/></g>
<g><path style="opacity:0.004" fill="#fefffe" d="M 281.5,607.5 C 284.962,609.193 284.962,610.193 281.5,610.5C 281.5,609.5 281.5,608.5 281.5,607.5 Z"/></g>
<g><path style="opacity:0.004" fill="#fefffe" d="M 447.5,607.5 C 449.048,607.821 449.715,608.821 449.5,610.5C 448.448,610.649 447.448,610.483 446.5,610C 447.252,609.329 447.586,608.496 447.5,607.5 Z"/></g>
<g><path style="opacity:0.004" fill="#fefffe" d="M 285.5,612.5 C 286.5,612.5 287.5,612.5 288.5,612.5C 288.5,613.5 288.5,614.5 288.5,615.5C 287.5,615.5 286.5,615.5 285.5,615.5C 285.5,614.5 285.5,613.5 285.5,612.5 Z"/></g>
<g><path style="opacity:0.004" fill="#fefffe" d="M 442.5,612.5 C 443.5,612.5 444.5,612.5 445.5,612.5C 445.5,613.5 445.5,614.5 445.5,615.5C 444.5,615.5 443.5,615.5 442.5,615.5C 442.5,614.5 442.5,613.5 442.5,612.5 Z"/></g>
<g><path style="opacity:0.004" fill="#fefffe" d="M 163.5,615.5 C 165.048,615.821 165.715,616.821 165.5,618.5C 162.752,618.598 162.086,617.598 163.5,615.5 Z"/></g>
<g><path style="opacity:0.004" fill="#fefffe" d="M 565.5,615.5 C 569.31,616.754 569.31,617.754 565.5,618.5C 565.5,617.5 565.5,616.5 565.5,615.5 Z"/></g>
<g><path style="opacity:0.004" fill="#fefffe" d="M 295.5,616.5 C 297.625,617.368 297.791,618.368 296,619.5C 294.317,618.824 294.15,617.824 295.5,616.5 Z"/></g>
<g><path style="opacity:0.004" fill="#fefffe" d="M 434.5,616.5 C 436.625,617.368 436.791,618.368 435,619.5C 433.317,618.824 433.15,617.824 434.5,616.5 Z"/></g>
<g><path style="opacity:0.004" fill="#fefffe" d="M 299.5,621.5 C 303.31,622.754 303.31,623.754 299.5,624.5C 299.5,623.5 299.5,622.5 299.5,621.5 Z"/></g>
<g><path style="opacity:0.004" fill="#fefffe" d="M 429.5,621.5 C 431.048,621.821 431.715,622.821 431.5,624.5C 428.752,624.598 428.086,623.598 429.5,621.5 Z"/></g>
<g><path style="opacity:0.004" fill="#fefffe" d="M 167.5,625.5 C 170.548,625.494 171.048,626.494 169,628.5C 167.961,627.756 167.461,626.756 167.5,625.5 Z"/></g>
<g><path style="opacity:0.004" fill="#fefffe" d="M 560.5,625.5 C 563.548,625.494 564.048,626.494 562,628.5C 560.961,627.756 560.461,626.756 560.5,625.5 Z"/></g>
<g><path style="opacity:0.004" fill="#fefffe" d="M 308.5,626.5 C 311.957,626.667 312.29,627.667 309.5,629.5C 308.614,628.675 308.281,627.675 308.5,626.5 Z"/></g>
<g><path style="opacity:0.004" fill="#fefffe" d="M 419.5,626.5 C 420.5,626.5 421.5,626.5 422.5,626.5C 421.754,630.31 420.754,630.31 419.5,626.5 Z"/></g>
<g><path style="opacity:0.004" fill="#dbdbdb" d="M 172.5,634.5 C 174.465,634.948 174.798,635.948 173.5,637.5C 171.481,636.867 171.147,635.867 172.5,634.5 Z"/></g>
<g><path style="opacity:0.004" fill="#dbdbdb" d="M 556.5,634.5 C 559.674,634.952 560.007,635.952 557.5,637.5C 556.614,636.675 556.281,635.675 556.5,634.5 Z"/></g>
<g><path style="opacity:0.004" fill="#fefffe" d="M 177.5,638.5 C 179.048,638.821 179.715,639.821 179.5,641.5C 176.752,641.598 176.086,640.598 177.5,638.5 Z"/></g>
<g><path style="opacity:0.004" fill="#fefffe" d="M 551.5,638.5 C 555.31,639.754 555.31,640.754 551.5,641.5C 551.5,640.5 551.5,639.5 551.5,638.5 Z"/></g>
<g><path style="opacity:0.004" fill="#fefffe" d="M 181.5,648.5 C 184.548,648.494 185.048,649.494 183,651.5C 181.961,650.756 181.461,649.756 181.5,648.5 Z"/></g>
<g><path style="opacity:0.004" fill="#fefffe" d="M 546.5,648.5 C 549.548,648.494 550.048,649.494 548,651.5C 546.961,650.756 546.461,649.756 546.5,648.5 Z"/></g>
<g><path style="opacity:0.004" fill="#fefffe" d="M 185.5,652.5 C 186.5,652.5 187.5,652.5 188.5,652.5C 187.754,656.31 186.754,656.31 185.5,652.5 Z"/></g>
<g><path style="opacity:0.004" fill="#fefffe" d="M 542.5,652.5 C 545.957,652.667 546.29,653.667 543.5,655.5C 542.614,654.675 542.281,653.675 542.5,652.5 Z"/></g>
<g><path style="opacity:0.004" fill="#fefffe" d="M 190.5,657.5 C 193.548,657.494 194.048,658.494 192,660.5C 190.961,659.756 190.461,658.756 190.5,657.5 Z"/></g>
<g><path style="opacity:0.004" fill="#fefffe" d="M 537.5,657.5 C 540.548,657.494 541.048,658.494 539,660.5C 537.961,659.756 537.461,658.756 537.5,657.5 Z"/></g>
<g><path style="opacity:0.004" fill="#fefffe" d="M 195.5,661.5 C 197.465,661.948 197.798,662.948 196.5,664.5C 194.481,663.867 194.147,662.867 195.5,661.5 Z"/></g>
<g><path style="opacity:0.004" fill="#fefffe" d="M 533.5,661.5 C 536.674,661.952 537.007,662.952 534.5,664.5C 533.614,663.675 533.281,662.675 533.5,661.5 Z"/></g>
<g><path style="opacity:0.004" fill="#fefffe" d="M 199.5,666.5 C 200.5,666.5 201.5,666.5 202.5,666.5C 201.754,670.31 200.754,670.31 199.5,666.5 Z"/></g>
<g><path style="opacity:0.004" fill="#fefffe" d="M 528.5,666.5 C 531.957,666.667 532.29,667.667 529.5,669.5C 528.614,668.675 528.281,667.675 528.5,666.5 Z"/></g>
<g><path style="opacity:0.004" fill="#000000" d="M 205.5,676.5 C 206.833,677.167 206.833,677.167 205.5,676.5 Z"/></g>
<g><path style="opacity:0.004" fill="#fefffe" d="M 524.5,676.5 C 525.833,677.167 525.833,677.167 524.5,676.5 Z"/></g>
<g><path style="opacity:0.004" fill="#fefffe" d="M 213.5,680.5 C 216.548,680.494 217.048,681.494 215,683.5C 213.961,682.756 213.461,681.756 213.5,680.5 Z"/></g>
<g><path style="opacity:0.004" fill="#fefffe" d="M 514.5,680.5 C 517.548,680.494 518.048,681.494 516,683.5C 514.961,682.756 514.461,681.756 514.5,680.5 Z"/></g>
<g><path style="opacity:0.004" fill="#fefffe" d="M 218.5,684.5 C 220.465,684.948 220.798,685.948 219.5,687.5C 217.481,686.867 217.147,685.867 218.5,684.5 Z"/></g>
<g><path style="opacity:0.004" fill="#fefffe" d="M 510.5,684.5 C 513.674,684.952 514.007,685.952 511.5,687.5C 510.614,686.675 510.281,685.675 510.5,684.5 Z"/></g>
<g><path style="opacity:0.004" fill="#fefffe" d="M 222.5,689.5 C 223.5,689.5 224.5,689.5 225.5,689.5C 224.754,693.31 223.754,693.31 222.5,689.5 Z"/></g>
<g><path style="opacity:0.004" fill="#fefffe" d="M 505.5,689.5 C 508.957,689.667 509.29,690.667 506.5,692.5C 505.614,691.675 505.281,690.675 505.5,689.5 Z"/></g>
<g><path style="opacity:0.004" fill="#f0e4ff" d="M 501.5,693.5 C 504.674,693.952 505.007,694.952 502.5,696.5C 500.481,695.867 500.147,694.867 501.5,693.5 Z"/></g>
<g><path style="opacity:0.004" fill="#c6c6c6" d="M 227.5,694.5 C 229.337,694.639 229.67,695.306 228.5,696.5C 227.702,696.043 227.369,695.376 227.5,694.5 Z"/></g>
<g><path style="opacity:0.004" fill="#fefffe" d="M 236.5,698.5 C 239.957,698.667 240.29,699.667 237.5,701.5C 236.614,700.675 236.281,699.675 236.5,698.5 Z"/></g>
<g><path style="opacity:0.004" fill="#fefffe" d="M 491.5,698.5 C 492.5,698.5 493.5,698.5 494.5,698.5C 493.754,702.31 492.754,702.31 491.5,698.5 Z"/></g>
<g><path style="opacity:0.004" fill="#fefffe" d="M 241.5,703.5 C 243.337,703.639 243.67,704.306 242.5,705.5C 241.702,705.043 241.369,704.376 241.5,703.5 Z"/></g>
<g><path style="opacity:0.004" fill="#e8d7ff" d="M 487.5,703.5 C 490.797,703.329 491.131,703.995 488.5,705.5C 487.702,705.043 487.369,704.376 487.5,703.5 Z"/></g>
<g><path style="opacity:0.004" fill="#fefffe" d="M 250.5,707.5 C 252.465,707.948 252.798,708.948 251.5,710.5C 249.481,709.867 249.147,708.867 250.5,707.5 Z"/></g>
<g><path style="opacity:0.004" fill="#fefffe" d="M 478.5,707.5 C 481.674,707.952 482.007,708.952 479.5,710.5C 478.614,709.675 478.281,708.675 478.5,707.5 Z"/></g>
<g><path style="opacity:0.004" fill="#fefffe" d="M 259.5,712.5 C 262.957,712.667 263.29,713.667 260.5,715.5C 259.614,714.675 259.281,713.675 259.5,712.5 Z"/></g>
<g><path style="opacity:0.004" fill="#fefffe" d="M 468.5,712.5 C 469.5,712.5 470.5,712.5 471.5,712.5C 470.754,716.31 469.754,716.31 468.5,712.5 Z"/></g>
<g><path style="opacity:0.004" fill="#fefffe" d="M 268.5,716.5 C 269.5,716.5 270.5,716.5 271.5,716.5C 271.5,717.5 271.5,718.5 271.5,719.5C 270.5,719.5 269.5,719.5 268.5,719.5C 268.5,718.5 268.5,717.5 268.5,716.5 Z"/></g>
<g><path style="opacity:0.004" fill="#fefffe" d="M 459.5,716.5 C 460.5,716.5 461.5,716.5 462.5,716.5C 462.5,717.5 462.5,718.5 462.5,719.5C 461.5,719.5 460.5,719.5 459.5,719.5C 459.5,718.5 459.5,717.5 459.5,716.5 Z"/></g>
<g><path style="opacity:0.004" fill="#d6d6d6" d="M 277.5,721.5 C 278.675,721.281 279.675,721.614 280.5,722.5C 278.948,723.798 277.948,723.465 277.5,721.5 Z"/></g>
<g><path style="opacity:0.004" fill="#d6d6d6" d="M 450.5,721.5 C 451.675,721.281 452.675,721.614 453.5,722.5C 451.948,723.798 450.948,723.465 450.5,721.5 Z"/></g>
<g><path style="opacity:0.004" fill="#dfdfdf" d="M 291.5,725.5 C 295.31,726.754 295.31,727.754 291.5,728.5C 291.5,727.5 291.5,726.5 291.5,725.5 Z"/></g>
<g><path style="opacity:0.004" fill="#dfdfdf" d="M 437.5,725.5 C 439.048,725.821 439.715,726.821 439.5,728.5C 436.752,728.598 436.086,727.598 437.5,725.5 Z"/></g>
<g><path style="opacity:0.004" fill="#fefffe" d="M 312.5,732.5 C 311.5,732.5 310.5,732.5 309.5,732.5C 310.5,729.833 311.5,729.833 312.5,732.5 Z"/></g>
<g><path style="opacity:0.004" fill="#fefffe" d="M 421.5,732.5 C 420.5,732.5 419.5,732.5 418.5,732.5C 419.5,729.833 420.5,729.833 421.5,732.5 Z"/></g>
</svg>
